<svg xmlns="http://www.w3.org/2000/svg" width="1024" height="1536" viewBox="0 0 1024 1536" version="1.1">
	<path d="M 426.500 80.076 C 393.080 81.354, 349.120 85.787, 327 90.110 C 280.218 99.254, 249.784 112.560, 221.286 136.332 C 190.811 161.753, 164.611 201.495, 144.019 253.538 C 124.232 303.546, 115.732 345.624, 117.363 385.500 C 118.279 407.910, 120.500 420.623, 126.519 437.916 C 131.751 452.946, 138.643 466.087, 152.002 486.500 C 165.730 507.477, 172.401 519.307, 183.256 541.922 C 209.706 597.025, 218.656 630.772, 228.892 714 C 230.549 727.475, 232.186 741.200, 232.529 744.500 C 234.951 767.786, 240.602 809.434, 244.606 833.500 C 252.762 882.536, 260.694 914.660, 275.470 958.500 C 284.056 983.974, 290.741 1007.449, 292.493 1018.281 C 294.390 1030.010, 295.809 1051.531, 296.430 1078 C 297.671 1130.829, 311.971 1184.572, 339.933 1241.500 C 376.267 1315.473, 413.222 1356.493, 463.868 1379.067 C 478.300 1385.501, 493.171 1390.565, 505.352 1393.195 C 514.124 1395.089, 518.619 1395.388, 538.500 1395.400 C 560.008 1395.412, 562.276 1395.236, 573.469 1392.677 C 590.141 1388.865, 601.455 1384.851, 616 1377.588 C 640.575 1365.317, 658.656 1352.215, 678.542 1332.267 C 703.077 1307.655, 722.802 1279.335, 739.451 1244.815 C 755.901 1210.708, 764.743 1178.519, 773.460 1121 C 780.506 1074.502, 783.512 1059.081, 791.103 1030.500 C 804.140 981.405, 822.658 940.313, 858.473 881 C 928.293 765.370, 936.103 751.311, 939.580 735 C 942.555 721.044, 941.216 710.519, 933.540 687.500 C 926.227 665.571, 924.806 658.446, 924.767 643.500 C 924.725 627.973, 926.380 617.550, 933.023 591.500 C 942.623 553.851, 946.897 530.662, 948.966 505 C 949.564 497.575, 950.274 489.430, 950.542 486.899 C 951.431 478.511, 951.065 433.614, 949.987 418.940 C 948.473 398.303, 944.637 373.015, 939 346.500 C 931.552 311.464, 930.799 306.722, 931.326 298.179 C 931.586 293.955, 932.124 289.012, 932.521 287.194 C 933.385 283.242, 931.405 280.720, 923.558 275.773 C 911.847 268.391, 896.894 254.369, 875.813 231 C 851.508 204.058, 821.998 177.435, 796.500 159.447 C 754.251 129.641, 708.499 108.674, 658.500 96.207 C 603.903 82.592, 517.616 76.593, 426.500 80.076 M 448 87.671 C 379.258 90.690, 343.120 94.486, 311.500 102.010 C 246.983 117.362, 205.294 152.316, 176.391 215.290 C 164.163 241.930, 150.805 277.981, 144.630 301 C 129.132 358.781, 130.983 416.353, 149.517 453 C 151.326 456.575, 156.689 466.250, 161.437 474.500 C 182.400 510.930, 205.698 561.011, 216.795 593.500 C 225.878 620.091, 233.775 653.377, 237.912 682.500 C 239.005 690.200, 241.052 709.325, 242.460 725 C 245.833 762.537, 247.619 778.953, 250.567 799.500 C 256.557 841.256, 268.631 896.844, 276.315 918.047 C 278.199 923.246, 283.119 935.616, 287.248 945.536 C 305.896 990.339, 308.676 1005.082, 310.999 1071.500 C 312.290 1108.437, 314.883 1128.545, 322.048 1157.195 C 332.150 1197.591, 347.818 1235.184, 370.106 1272.500 C 400.970 1324.176, 430.878 1352.396, 475.146 1371.611 C 500.625 1382.671, 518.799 1386.494, 542 1385.676 C 578.484 1384.390, 616.043 1371.149, 648.456 1348.146 C 670.511 1332.495, 696.391 1302.742, 714.255 1272.500 C 739.056 1230.516, 752.174 1189.879, 761.062 1127.500 C 769.065 1071.332, 777.661 1034.663, 793.294 990 C 800.436 969.596, 806.354 955.699, 817.675 932.749 C 829.448 908.885, 833.609 901.742, 865.007 851.500 C 922.601 759.341, 931.415 740.939, 929.583 716.677 C 928.908 707.732, 928.330 705.741, 917.631 675.500 C 913.280 663.200, 912.017 655.631, 912.008 641.785 C 911.998 628.069, 914.201 616.797, 921.834 591.500 C 938.128 537.501, 943.382 503.023, 943.397 450 C 943.409 406.783, 941.073 389.054, 926.931 325 C 924.611 314.492, 923.644 307.334, 923.420 299 L 923.110 287.500 908.805 274.323 C 900.937 267.075, 888.441 254.475, 881.036 246.323 C 835.959 196.698, 807.074 171.427, 769.327 148.592 C 705.450 109.949, 639.817 92.808, 537.396 88.021 C 518.649 87.144, 464.786 86.934, 448 87.671 M 663.994 124.864 C 654.975 127.859, 650.997 132.154, 651.007 138.885 C 651.020 148.206, 656.419 152.727, 676.417 160.159 C 685.724 163.617, 708.534 169.548, 716.226 170.509 C 735.984 172.978, 741.466 156.265, 725.118 143.401 C 711.844 132.956, 691.647 125.168, 676 124.461 C 670.775 124.225, 665.372 124.407, 663.994 124.864 M 346.991 126.486 C 338.641 128.152, 323.652 133.942, 315.704 138.572 C 304.968 144.826, 295.845 152.297, 275.877 171.190 C 265.220 181.274, 249.125 196.242, 240.112 204.454 C 221.358 221.540, 210.586 233.408, 201.461 247.038 C 191.445 262.001, 184.001 280.713, 180.851 298.852 C 179.322 307.656, 179.361 341.411, 180.912 351.500 C 184.887 377.364, 193.010 399.509, 209.340 429 C 222.451 452.678, 248.411 506.818, 260.065 534.788 C 272.911 565.621, 276.702 594.211, 275.671 652.500 C 275.350 670.650, 274.871 687.075, 274.607 689 C 272.439 704.800, 270.784 746.104, 271.322 771 C 272.465 823.923, 278.773 849.343, 308.078 919.117 C 323.083 954.841, 328.733 969.450, 335.299 989.500 C 346.096 1022.467, 349.248 1039.822, 351.462 1078.500 C 353.705 1117.683, 355.587 1133.181, 360.984 1156.938 C 371.251 1202.131, 391.570 1246.635, 410.180 1264.691 C 416.668 1270.986, 422.141 1272.883, 437.331 1274.101 C 456.425 1275.632, 456.020 1275.339, 468.547 1296.741 C 474.792 1307.410, 484.692 1319.654, 494.403 1328.719 C 508.076 1341.482, 519.809 1347.115, 533 1347.246 C 542.056 1347.337, 547.912 1345.138, 559 1337.485 C 571.571 1328.807, 572.162 1328.596, 585.523 1327.986 C 596.745 1327.474, 598.063 1327.192, 605.298 1323.756 C 624.220 1314.770, 645.611 1293.543, 682.142 1247.500 C 725.803 1192.470, 735.670 1168.661, 747 1091 C 760.195 1000.554, 770.983 957.854, 791.960 913.044 C 809.332 875.933, 825.018 852.270, 849.990 825.500 C 867.098 807.160, 877.542 792.193, 888.020 771 C 898.275 750.256, 901.970 737.939, 901.970 724.500 C 901.970 714.160, 900.291 707.293, 893.616 690.339 C 890.620 682.728, 887.118 671.775, 885.834 666 C 883.707 656.430, 883.508 653.241, 883.587 630 C 883.677 603.680, 884.115 598.651, 889.118 566.500 C 897.060 515.470, 896.932 517.957, 896.117 430 C 895.862 402.498, 896.210 392.348, 898.380 364 C 901.188 327.323, 902.899 315.115, 906.723 304.500 C 910.567 293.830, 910.613 292.698, 907.345 289.194 C 905.250 286.948, 902.201 285.459, 895.777 283.548 C 879.022 278.562, 873.778 275.007, 844 248.446 C 801.703 210.718, 772.761 194.264, 722 179.088 C 677.206 165.695, 647.768 162.178, 592.500 163.616 C 531.590 165.200, 521.335 164.677, 499.017 158.848 C 492.702 157.199, 473.802 151.093, 457.017 145.280 C 419.646 132.337, 409.881 129.476, 394.500 126.962 C 380.499 124.673, 357.246 124.441, 346.991 126.486 M 296 127.525 C 294.437 128.434, 292.158 128.773, 289.921 128.430 C 284.372 127.580, 283.157 129.886, 286.992 133.991 C 288.658 135.774, 290.290 138.306, 290.619 139.617 C 291.501 143.131, 294.998 142.839, 295.005 139.250 C 295.008 137.738, 296.119 134.700, 297.474 132.500 C 301.284 126.314, 300.813 124.726, 296 127.525 M 662.251 131.901 C 656.633 134.546, 655.084 137.855, 657.294 142.490 C 658.195 144.381, 660.685 147.086, 662.826 148.503 C 671.067 153.957, 701.768 163.189, 716.021 164.500 C 725.914 165.410, 728.630 163.453, 728.115 155.785 C 727.742 150.220, 712.472 139.723, 696.885 134.316 C 688.531 131.418, 684.806 130.688, 676.577 130.334 C 667.996 129.966, 665.869 130.198, 662.251 131.901 M 259 133.313 C 245.213 138.993, 225.282 156.898, 219.868 168.468 C 217.271 174.017, 216.838 175.966, 217.250 180.250 C 218.288 191.057, 226.828 192.868, 241.208 185.331 C 251.953 179.700, 265.192 166.197, 270.780 155.172 C 276.620 143.648, 276.454 134.895, 270.343 132.110 C 266.928 130.554, 265.271 130.730, 259 133.313 M 290.505 131.992 C 290.168 132.538, 290.291 133.698, 290.780 134.570 C 291.538 135.926, 291.913 135.782, 293.357 133.578 C 294.975 131.109, 294.963 131, 293.082 131 C 292.002 131, 290.842 131.446, 290.505 131.992 M 347.965 134.942 C 333.179 138.062, 317.918 145.472, 304.263 156.159 C 295.493 163.024, 239.873 218.883, 228.511 232.238 C 214.263 248.986, 206.511 262.510, 200.085 281.836 C 192.358 305.074, 191.949 333.407, 198.892 364.500 C 204.068 387.679, 210.009 402.090, 235.994 454.500 C 267.526 518.099, 273.039 530.284, 280.336 552.500 C 285.148 567.152, 287.467 577.664, 289.599 594.500 C 292.240 615.355, 291.988 658.071, 288.969 701.500 C 285.452 752.088, 285.815 790.324, 290.082 818.500 C 293.473 840.895, 301.754 873.731, 309.879 897 C 311.511 901.675, 318.223 919.225, 324.795 936 C 343.481 983.701, 348.621 999.067, 353.936 1023.120 C 357.287 1038.284, 359.595 1055.179, 360.477 1071 C 364.082 1135.631, 369.890 1167.286, 385.154 1205.500 C 391.772 1222.068, 398.507 1235.491, 405.352 1245.758 C 416.674 1262.738, 421.125 1265.435, 440.347 1266.968 C 460.207 1268.551, 461.457 1269.386, 472.799 1288.638 C 487.316 1313.279, 502.943 1329.776, 519 1337.410 C 524.597 1340.071, 526.611 1340.498, 533.500 1340.486 C 542.813 1340.470, 544.044 1339.940, 558.105 1329.886 C 571.046 1320.634, 572.987 1319.907, 582.747 1320.660 C 598.053 1321.840, 609.629 1315.576, 630.016 1295.082 C 660.165 1264.773, 688.574 1224.130, 704.310 1188.794 C 716.008 1162.524, 722.702 1134.273, 729.039 1084.415 C 731.530 1064.819, 737.094 1034.581, 741.602 1016.136 C 751.415 975.984, 765.134 940.864, 789.312 894 C 808.598 856.618, 818.652 841.561, 839.056 819.500 C 868.638 787.516, 879.728 765.409, 882.495 732.908 C 883.441 721.793, 880.657 703.625, 874.879 683.208 C 867.413 656.828, 866.522 650.796, 866.576 627 C 866.626 604.800, 867.490 597.488, 873.548 568 C 884.610 514.148, 886.794 486.734, 883.612 441.683 C 882.725 429.133, 882 412.886, 882 405.578 C 882 373.599, 887.588 330.959, 895.001 306.372 C 899.256 292.257, 899.307 292.480, 891.250 290.046 C 877.344 285.846, 866.972 278.544, 841.571 255.073 C 805.320 221.576, 781.470 206.392, 743 192.321 C 719.720 183.806, 687.064 175.976, 660 172.423 C 641.012 169.929, 610.704 169.331, 577.702 170.799 C 529.870 172.926, 507.948 170.390, 475.026 158.920 C 428.052 142.556, 410.052 137.299, 391.720 134.592 C 377.465 132.487, 358.894 132.635, 347.965 134.942 M 256.772 138.931 C 253.621 140.528, 247.733 144.541, 243.686 147.848 C 225.894 162.386, 217.010 177.080, 222.829 182.345 C 225.678 184.923, 229.918 184.302, 237.194 180.238 C 255.086 170.246, 269.918 152.656, 269.978 141.357 C 270.012 134.993, 265.992 134.254, 256.772 138.931 M 745.648 159.761 C 745.130 160.599, 747.454 164.211, 748.099 163.570 C 748.319 163.351, 748.487 165.045, 748.471 167.336 C 748.434 172.600, 748.873 174, 750.561 174 C 752.162 174, 759.195 165.085, 758.719 163.658 C 758.538 163.114, 755.939 161.856, 752.945 160.862 C 746.697 158.790, 746.286 158.728, 745.648 159.761 M 750.760 166.523 C 751.286 169.276, 752.017 169.583, 753.800 167.800 C 755.686 165.914, 755.212 164.454, 752.643 164.241 C 750.640 164.075, 750.357 164.418, 750.760 166.523 M 343.941 177.003 C 335.192 178.063, 323.981 182.066, 317.259 186.529 C 310.563 190.974, 289.492 211.985, 278.146 225.528 C 262.170 244.600, 251.734 260.619, 244.964 276.465 C 239.519 289.209, 237.838 297.352, 237.886 310.742 C 237.949 328.180, 241.240 339.979, 253.954 368.341 C 262.342 387.053, 265.222 395.448, 273.030 423.957 C 280.197 450.128, 285.106 464.361, 290.806 475.500 L 294.900 483.500 294.928 475 C 294.950 468.479, 294.474 465.452, 292.887 462 C 289.195 453.968, 285.258 441.969, 278.117 416.986 C 271.421 393.562, 265.413 375.882, 257.630 356.697 C 255.666 351.856, 252.598 342.856, 250.812 336.697 C 247.850 326.482, 247.562 324.273, 247.532 311.500 C 247.505 299.590, 247.846 296.399, 249.818 290.121 C 254.900 273.944, 263.656 257.835, 277.010 240.095 C 300.183 209.312, 324.384 189.929, 343.703 186.678 C 358.964 184.111, 380.914 187.347, 404.500 195.643 C 437.617 207.291, 443.349 209.053, 456 211.476 C 484.392 216.913, 493.723 219.324, 510.642 225.595 C 547.358 239.202, 569.518 242.129, 635.170 242.043 C 691.609 241.969, 711.577 243.534, 738.990 250.184 C 750.291 252.925, 757.939 255.447, 797.500 269.479 C 804.100 271.820, 811.019 274.068, 812.875 274.475 C 819.097 275.837, 815.209 272.960, 803.106 267.246 C 763.426 248.512, 727.831 238.341, 690.500 235.072 C 683.900 234.494, 662.395 234.016, 642.711 234.010 C 570.752 233.990, 541.995 230.277, 504.231 216.133 C 489.643 210.670, 476.227 206.867, 461.500 204.020 C 446.297 201.080, 432.936 197.432, 422.191 193.286 C 390.998 181.250, 377.614 177.710, 359.500 176.707 C 354.550 176.432, 347.549 176.566, 343.941 177.003 M 208.200 197.200 C 206.140 199.260, 206.815 201.915, 209.573 202.608 C 210.988 202.963, 212.621 202.779, 213.200 202.200 C 213.779 201.621, 213.963 199.988, 213.608 198.573 C 212.915 195.815, 210.260 195.140, 208.200 197.200 M 920.393 383.988 C 911.812 387.417, 905.369 408.188, 906.187 429.788 C 906.629 441.484, 908.029 445.607, 912.338 447.913 C 920.183 452.112, 930.245 440.332, 933.058 423.655 C 934.381 415.811, 933.868 401.239, 932.011 393.922 C 930.050 386.197, 925.214 382.061, 920.393 383.988 M 919.041 390.957 C 912.127 398.358, 907.440 428.560, 911.593 438.942 C 915.491 448.683, 922.843 443.412, 927.596 427.470 C 929.804 420.064, 930.093 401.448, 928.093 395.500 C 926.676 391.288, 924.332 388, 922.746 388 C 922.227 388, 920.560 389.330, 919.041 390.957 M 914.371 461.557 C 913.449 462.963, 912.492 466.230, 912.244 468.816 C 911.850 472.910, 912.140 473.868, 914.485 476.212 C 916.788 478.515, 917.467 478.731, 919.174 477.703 C 921.095 476.545, 926 468.160, 926 466.033 C 926 465.465, 925.409 465, 924.687 465 C 923.965 465, 922.081 463.650, 920.500 462 C 917.002 458.348, 916.497 458.312, 914.371 461.557 M 916.241 464.986 C 914.616 467.587, 914.664 471.159, 916.354 473.470 C 917.625 475.207, 917.870 475.085, 920.314 471.488 L 922.919 467.655 920.408 465.327 C 917.391 462.532, 917.755 462.561, 916.241 464.986 M 231.826 523.712 C 228.141 525.998, 226.817 529.298, 226.244 537.629 C 225.020 555.394, 233.344 580.581, 242.229 585.998 C 253.547 592.899, 262.096 582.059, 260.690 562.593 C 259.472 545.720, 251.785 530.205, 241.500 523.859 C 237.819 521.588, 235.312 521.550, 231.826 523.712 M 233.247 529.466 C 230.641 531.709, 230.505 532.260, 230.598 540.166 C 230.779 555.551, 235.597 572.151, 241.843 578.909 C 246.658 584.119, 249.272 584.819, 252.365 581.725 C 262.377 571.714, 252.680 532.919, 238.971 528.140 C 236.416 527.249, 235.604 527.437, 233.247 529.466 M 250.765 624.750 C 250.327 631.078, 251.225 634.597, 253 633.500 C 253.425 633.237, 254.325 633.687, 255 634.500 C 255.675 635.313, 256.626 635.731, 257.113 635.430 C 257.601 635.129, 258 635.359, 258 635.941 C 258 639.174, 260.571 635.339, 264.833 625.750 C 265.017 625.337, 263.867 625, 262.280 625 C 260.293 625, 258.334 623.909, 256 621.500 C 254.134 619.575, 252.298 618, 251.920 618 C 251.542 618, 251.023 621.038, 250.765 624.750 M 253.793 626.270 C 253.586 627.628, 254.361 629.379, 255.778 630.750 C 258.657 633.536, 258.664 633.535, 259.230 630.575 C 259.576 628.770, 258.984 627.625, 256.914 626.095 L 254.134 624.039 253.793 626.270 M 326.381 1022.162 C 317.477 1026.476, 314.964 1062.427, 322.543 1077.083 C 324.456 1080.783, 329.786 1084.176, 332.497 1083.419 C 340.727 1081.122, 346.455 1062.690, 344.130 1045.985 C 342.719 1035.842, 340.324 1028.849, 336.798 1024.572 C 333.705 1020.819, 330.624 1020.106, 326.381 1022.162 M 326.488 1028.377 C 321.003 1036.750, 320.762 1062.132, 326.061 1073.406 C 329.429 1080.571, 333.173 1080.340, 337.247 1072.717 C 339.276 1068.919, 339.500 1067.110, 339.500 1054.500 C 339.500 1043.660, 339.099 1039.351, 337.722 1035.409 C 334.622 1026.528, 329.713 1023.456, 326.488 1028.377 M 327.680 1108.117 C 327.042 1110.557, 332.244 1123, 333.902 1123 C 335.668 1123, 336.837 1119.637, 337.175 1113.587 C 337.493 1107.883, 337.442 1107.754, 334.754 1107.449 C 333.244 1107.278, 331.162 1106.869, 330.128 1106.541 C 328.761 1106.107, 328.093 1106.537, 327.680 1108.117 M 331 1111.453 C 331 1111.702, 331.516 1113.038, 332.146 1114.422 C 333.502 1117.398, 335 1116.883, 335 1113.441 C 335 1111.667, 334.454 1111, 333 1111 C 331.900 1111, 331 1111.204, 331 1111.453 M 714.958 1228.545 C 711.831 1231.873, 713.222 1234.500, 718.109 1234.500 C 720.840 1234.500, 721.561 1234.072, 721.813 1232.302 C 722.197 1229.599, 720.385 1226, 718.639 1226 C 717.929 1226, 716.273 1227.145, 714.958 1228.545 M 690 1259.715 C 685.640 1261.793, 656.309 1291.065, 645.123 1304.500 C 634.356 1317.431, 625.313 1330.133, 622.363 1336.468 C 616.103 1349.911, 623.566 1356.191, 637.622 1349.309 C 655.946 1340.337, 686.238 1306.837, 697.024 1283.619 C 701.149 1274.739, 702.530 1268.691, 701.503 1264.011 C 700.184 1258.007, 696.481 1256.624, 690 1259.715 M 691.291 1264.629 C 689.526 1265.499, 679.165 1275.276, 668.266 1286.355 C 642.599 1312.450, 625 1335.631, 625 1343.344 C 625 1353.233, 640.229 1345.932, 659 1327.045 C 682.325 1303.575, 697.802 1279.170, 696.816 1267.415 C 696.442 1262.961, 695.570 1262.521, 691.291 1264.629 M 437.790 1293.056 L 434.733 1296.113 435.248 1305.306 C 435.575 1311.128, 436.534 1316.517, 437.864 1320 C 443.943 1335.913, 458.188 1353.448, 467.016 1355.883 C 474.669 1357.994, 479.851 1354.499, 480.739 1346.627 C 482.838 1328.004, 457.821 1290, 443.463 1290 C 441.878 1290, 439.641 1291.205, 437.790 1293.056 M 440.384 1297.536 C 436.539 1303.405, 441.198 1319.185, 451.186 1334.118 C 457.304 1343.263, 462.093 1348.123, 467.554 1350.727 C 470.607 1352.183, 471.083 1352.176, 473.422 1350.643 C 474.822 1349.725, 476.240 1347.892, 476.572 1346.569 C 478.965 1337.034, 463.504 1307.644, 451.172 1298.285 C 445.929 1294.305, 442.651 1294.078, 440.384 1297.536" stroke="none" fill="#111111" fill-rule="evenodd"/>
</svg>